M48
; DRILL file {KiCad 9.0.6} date 2026-03-22T19:44:50-0700
; FORMAT={-:-/ absolute / metric / decimal}
; #@! TF.CreationDate,2026-03-22T19:44:50-07:00
; #@! TF.GenerationSoftware,Kicad,Pcbnew,9.0.6
; #@! TF.FileFunction,Plated,1,2,PTH
FMAT,2
METRIC
; #@! TA.AperFunction,Plated,PTH,ViaDrill
T1C0.300
; #@! TA.AperFunction,Plated,PTH,ComponentDrill
T2C0.300
; #@! TA.AperFunction,Plated,PTH,ComponentDrill
T3C0.600
; #@! TA.AperFunction,Plated,PTH,ComponentDrill
T4C0.750
; #@! TA.AperFunction,Plated,PTH,ComponentDrill
T5C0.800
; #@! TA.AperFunction,Plated,PTH,ComponentDrill
T6C0.900
; #@! TA.AperFunction,Plated,PTH,ComponentDrill
T7C1.000
%
G90
G05
T1
X88.2Y-80.9
X90.0Y-99.7
X90.1Y-79.3
X91.6Y-71.3
X91.75Y-95.8
X93.05Y-95.8
X103.4Y-123.6
X105.0Y-100.9
X105.5Y-91.9
X106.7Y-112.4
X112.8Y-110.2
X113.5Y-112.0
X116.1Y-116.1
X116.1Y-123.4
X122.7Y-69.0
X124.3Y-92.8
X126.1Y-124.4
X126.4Y-99.5
X127.0Y-118.0
X127.3Y-87.5
X127.6Y-90.3
X128.1Y-106.2
X128.3Y-98.9
X128.3Y-133.7
X128.4Y-94.5
X128.4Y-123.4
X128.4Y-127.1
X128.5Y-109.7
X128.6Y-111.7
X129.1Y-64.3
X129.9Y-97.3
X130.25Y-87.8
X130.25Y-90.3
X130.25Y-91.831
X130.5Y-108.5
X130.8Y-66.1
X131.0Y-123.5
X131.1Y-106.2
X131.4Y-133.4
X131.6Y-98.5
X131.7Y-93.1
X131.801Y-130.693
X132.35Y-68.0
X132.4Y-68.9
X132.4Y-72.4
X132.4Y-126.6
X132.5Y-95.0
X133.0Y-87.9
X133.5Y-90.3
X133.65Y-107.2
X135.5Y-107.2
X135.7Y-102.3
X136.8Y-127.362
X136.801Y-126.063
X136.9Y-130.2
X137.3Y-123.45
X137.8Y-101.4
X138.0Y-103.3
X138.1Y-100.3
X138.35Y-124.75
X138.4Y-74.2
X138.675Y-133.7
X138.7Y-104.8
X139.8Y-98.6
X140.0Y-122.2
X140.0Y-124.15
X140.5Y-66.4
X140.774Y-124.75
X141.4Y-134.2
X141.5Y-102.35
X142.5Y-103.65
X142.5Y-124.6
X142.6Y-135.6
X143.4Y-134.2
X143.8Y-127.4
X144.3Y-109.5
X144.5Y-106.6
X145.4Y-99.8
X146.9Y-129.2
X148.4Y-64.9
X149.25Y-110.9
X150.2Y-93.8
X150.7Y-115.0
X151.0Y-100.4
X151.4Y-88.9
X152.4Y-85.6
X152.9Y-124.8
X153.9Y-66.4
X154.09Y-63.39
X155.06Y-64.34
X155.8Y-99.5
X156.5Y-78.7
X158.0Y-62.9
X159.1Y-101.6
X160.0Y-93.1
X161.3Y-60.8
X161.5Y-103.0
X162.5Y-100.0
X162.6Y-74.7
T2
X138.5Y-128.575
X138.5Y-129.575
X138.5Y-130.575
X139.7Y-128.575
X139.7Y-129.575
X139.7Y-130.575
X140.9Y-128.575
X140.9Y-129.575
X140.9Y-130.575
X142.1Y-128.575
X142.1Y-129.575
X142.1Y-130.575
X160.6Y-78.875
X160.6Y-80.075
X160.6Y-81.275
X162.0Y-78.875
X162.0Y-80.075
X162.0Y-81.275
T4
X135.0Y-120.175
X137.0Y-120.175
X143.7Y-120.175
X145.7Y-120.175
X153.35Y-103.475
X153.35Y-105.475
X153.35Y-107.475
X153.35Y-109.475
X155.5Y-96.875
X157.5Y-96.875
X159.5Y-96.875
X160.3Y-87.975
X161.5Y-96.875
X162.3Y-87.975
X163.5Y-96.875
X164.6Y-105.075
X164.6Y-107.075
X165.5Y-96.875
T5
X95.796Y-105.917
X95.796Y-108.457
X95.796Y-110.997
X95.8Y-57.66
X95.8Y-60.2
X95.8Y-62.74
X95.8Y-65.28
X95.8Y-67.82
X95.8Y-70.36
X95.8Y-72.9
X95.8Y-75.44
X95.8Y-77.98
X95.8Y-80.52
X95.8Y-83.06
X95.8Y-85.6
X95.8Y-88.14
X95.8Y-90.68
X95.8Y-93.22
X95.8Y-95.76
X95.8Y-98.3
X95.8Y-100.84
X95.8Y-103.38
X118.66Y-57.66
X118.66Y-60.2
X118.66Y-62.74
X118.66Y-65.28
X118.66Y-67.82
X118.66Y-70.36
X118.66Y-72.9
X118.66Y-75.44
X118.66Y-77.98
X118.66Y-80.52
X118.66Y-83.06
X118.66Y-85.6
X118.66Y-88.14
X118.66Y-90.68
X118.66Y-93.22
X118.66Y-95.76
X118.66Y-98.3
X118.66Y-100.84
X118.66Y-103.38
X118.66Y-105.92
X118.66Y-108.46
X118.66Y-111.0
X137.6Y-110.2
X141.1Y-110.2
X157.7Y-127.8
X161.2Y-127.8
T6
X146.56Y-80.575
X149.1Y-80.575
T7
X118.0Y-128.5
X125.6Y-128.5
X135.9Y-59.88
X135.9Y-62.42
X135.9Y-64.96
X135.9Y-67.5
X135.9Y-70.04
X135.9Y-72.58
X135.9Y-75.12
X135.9Y-77.66
X135.9Y-80.2
X135.9Y-82.74
X153.8Y-115.395
X153.8Y-117.935
X153.8Y-120.475
X164.6Y-115.395
X164.6Y-117.935
X164.6Y-120.475
T3
G00X164.88Y-61.68
M15
G01X165.98Y-61.68
M16
G05
G00X164.88Y-70.32
M15
G01X165.98Y-70.32
M16
G05
G00X169.31Y-61.68
M15
G01X169.91Y-61.68
M16
G05
G00X169.31Y-70.32
M15
G01X169.91Y-70.32
M16
G05
M30
