%TF.GenerationSoftware,KiCad,Pcbnew,9.0.6*%
%TF.CreationDate,2026-03-22T19:44:48-07:00*%
%TF.ProjectId,Ultimate Useless Box,556c7469-6d61-4746-9520-5573656c6573,rev?*%
%TF.SameCoordinates,Original*%
%TF.FileFunction,Soldermask,Top*%
%TF.FilePolarity,Negative*%
%FSLAX46Y46*%
G04 Gerber Fmt 4.6, Leading zero omitted, Abs format (unit mm)*
G04 Created by KiCad (PCBNEW 9.0.6) date 2026-03-22 19:44:48*
%MOMM*%
%LPD*%
G01*
G04 APERTURE LIST*
G04 Aperture macros list*
%AMRoundRect*
0 Rectangle with rounded corners*
0 $1 Rounding radius*
0 $2 $3 $4 $5 $6 $7 $8 $9 X,Y pos of 4 corners*
0 Add a 4 corners polygon primitive as box body*
4,1,4,$2,$3,$4,$5,$6,$7,$8,$9,$2,$3,0*
0 Add four circle primitives for the rounded corners*
1,1,$1+$1,$2,$3*
1,1,$1+$1,$4,$5*
1,1,$1+$1,$6,$7*
1,1,$1+$1,$8,$9*
0 Add four rect primitives between the rounded corners*
20,1,$1+$1,$2,$3,$4,$5,0*
20,1,$1+$1,$4,$5,$6,$7,0*
20,1,$1+$1,$6,$7,$8,$9,0*
20,1,$1+$1,$8,$9,$2,$3,0*%
G04 Aperture macros list end*
%ADD10RoundRect,0.250000X-0.475000X0.250000X-0.475000X-0.250000X0.475000X-0.250000X0.475000X0.250000X0*%
%ADD11RoundRect,0.250000X-0.262500X-0.450000X0.262500X-0.450000X0.262500X0.450000X-0.262500X0.450000X0*%
%ADD12RoundRect,0.250000X-0.550000X-0.550000X0.550000X-0.550000X0.550000X0.550000X-0.550000X0.550000X0*%
%ADD13C,1.600000*%
%ADD14RoundRect,0.250000X0.262500X0.450000X-0.262500X0.450000X-0.262500X-0.450000X0.262500X-0.450000X0*%
%ADD15RoundRect,0.250000X0.250000X0.475000X-0.250000X0.475000X-0.250000X-0.475000X0.250000X-0.475000X0*%
%ADD16R,2.000000X2.000000*%
%ADD17C,2.000000*%
%ADD18RoundRect,0.150000X-0.512500X-0.150000X0.512500X-0.150000X0.512500X0.150000X-0.512500X0.150000X0*%
%ADD19RoundRect,0.250000X0.350000X0.625000X-0.350000X0.625000X-0.350000X-0.625000X0.350000X-0.625000X0*%
%ADD20O,1.200000X1.750000*%
%ADD21RoundRect,0.250000X-0.350000X-0.625000X0.350000X-0.625000X0.350000X0.625000X-0.350000X0.625000X0*%
%ADD22RoundRect,0.250000X0.625000X-0.350000X0.625000X0.350000X-0.625000X0.350000X-0.625000X-0.350000X0*%
%ADD23O,1.750000X1.200000*%
%ADD24RoundRect,0.250000X0.475000X-0.250000X0.475000X0.250000X-0.475000X0.250000X-0.475000X-0.250000X0*%
%ADD25RoundRect,0.250000X-0.450000X0.262500X-0.450000X-0.262500X0.450000X-0.262500X0.450000X0.262500X0*%
%ADD26RoundRect,0.250000X-0.250000X-0.475000X0.250000X-0.475000X0.250000X0.475000X-0.250000X0.475000X0*%
%ADD27R,1.700000X1.700000*%
%ADD28C,1.700000*%
%ADD29RoundRect,0.150000X0.825000X0.150000X-0.825000X0.150000X-0.825000X-0.150000X0.825000X-0.150000X0*%
%ADD30R,2.410000X3.300000*%
%ADD31R,2.310000X2.460000*%
%ADD32RoundRect,0.100000X-0.100000X0.687500X-0.100000X-0.687500X0.100000X-0.687500X0.100000X0.687500X0*%
%ADD33RoundRect,0.250000X0.550000X0.550000X-0.550000X0.550000X-0.550000X-0.550000X0.550000X-0.550000X0*%
%ADD34R,1.200000X3.700000*%
%ADD35R,1.800000X1.800000*%
%ADD36C,1.800000*%
%ADD37RoundRect,0.250000X0.450000X-0.262500X0.450000X0.262500X-0.450000X0.262500X-0.450000X-0.262500X0*%
%ADD38C,0.650000*%
%ADD39R,1.450000X0.600000*%
%ADD40R,1.450000X0.300000*%
%ADD41O,2.100000X1.000000*%
%ADD42O,1.600000X1.000000*%
%ADD43RoundRect,0.112500X0.187500X0.112500X-0.187500X0.112500X-0.187500X-0.112500X0.187500X-0.112500X0*%
%ADD44RoundRect,0.250000X-1.000000X-0.650000X1.000000X-0.650000X1.000000X0.650000X-1.000000X0.650000X0*%
%ADD45RoundRect,0.150000X-0.587500X-0.150000X0.587500X-0.150000X0.587500X0.150000X-0.587500X0.150000X0*%
%ADD46R,2.000000X1.200000*%
%ADD47O,2.000000X1.200000*%
G04 APERTURE END LIST*
D10*
%TO.C,C3*%
X145200000Y-132225000D03*
X145200000Y-134125000D03*
%TD*%
D11*
%TO.C,R6*%
X158675000Y-111075000D03*
X160500000Y-111075000D03*
%TD*%
D12*
%TO.C,C6*%
X137600000Y-110200000D03*
D13*
X141100000Y-110200000D03*
%TD*%
D14*
%TO.C,R7*%
X152300000Y-90975000D03*
X150475000Y-90975000D03*
%TD*%
D11*
%TO.C,R9*%
X130075000Y-102075000D03*
X131900000Y-102075000D03*
%TD*%
D15*
%TO.C,C12*%
X141800000Y-68500000D03*
X139900000Y-68500000D03*
%TD*%
D16*
%TO.C,BZ1*%
X118000000Y-128500000D03*
D17*
X125600000Y-128500000D03*
%TD*%
D18*
%TO.C,U4*%
X150125000Y-62400000D03*
X150125000Y-63350000D03*
X150125000Y-64300000D03*
X152400000Y-64300000D03*
X152400000Y-63350000D03*
X152400000Y-62400000D03*
%TD*%
D11*
%TO.C,R10*%
X133675000Y-127900000D03*
X135500000Y-127900000D03*
%TD*%
%TO.C,R17*%
X159535000Y-62500000D03*
X161360000Y-62500000D03*
%TD*%
D19*
%TO.C,J_MOT_R1*%
X137000000Y-120175000D03*
D20*
X135000000Y-120175000D03*
%TD*%
D21*
%TO.C,J_TOF1*%
X155500000Y-96875000D03*
D20*
X157500000Y-96875000D03*
X159500000Y-96875000D03*
X161500000Y-96875000D03*
X163500000Y-96875000D03*
X165500000Y-96875000D03*
%TD*%
D15*
%TO.C,C9*%
X146100000Y-91100000D03*
X144200000Y-91100000D03*
%TD*%
D22*
%TO.C,J_OLED1*%
X153350000Y-109475000D03*
D23*
X153350000Y-107475000D03*
X153350000Y-105475000D03*
X153350000Y-103475000D03*
%TD*%
D11*
%TO.C,R12*%
X153275000Y-80675000D03*
X155100000Y-80675000D03*
%TD*%
D24*
%TO.C,C5*%
X155100000Y-86000000D03*
X155100000Y-84100000D03*
%TD*%
D25*
%TO.C,R4*%
X166600000Y-124587500D03*
X166600000Y-126412500D03*
%TD*%
D26*
%TO.C,C4*%
X133600000Y-125475000D03*
X135500000Y-125475000D03*
%TD*%
D10*
%TO.C,C11*%
X156400000Y-64700000D03*
X156400000Y-66600000D03*
%TD*%
D11*
%TO.C,R3*%
X145275000Y-112775000D03*
X147100000Y-112775000D03*
%TD*%
D27*
%TO.C,J3*%
X135900000Y-59880000D03*
D28*
X135900000Y-62420000D03*
X135900000Y-64960000D03*
X135900000Y-67500000D03*
X135900000Y-70040000D03*
X135900000Y-72580000D03*
X135900000Y-75120000D03*
X135900000Y-77660000D03*
X135900000Y-80200000D03*
X135900000Y-82740000D03*
%TD*%
D11*
%TO.C,R5*%
X133675000Y-130100000D03*
X135500000Y-130100000D03*
%TD*%
%TO.C,R2*%
X142475000Y-101375000D03*
X144300000Y-101375000D03*
%TD*%
D25*
%TO.C,R16*%
X161500000Y-67287500D03*
X161500000Y-69112500D03*
%TD*%
D29*
%TO.C,U3*%
X163775000Y-81980000D03*
X163775000Y-80710000D03*
X163775000Y-79440000D03*
X163775000Y-78170000D03*
X158825000Y-78170000D03*
X158825000Y-79440000D03*
X158825000Y-80710000D03*
X158825000Y-81980000D03*
D30*
X161300000Y-80075000D03*
%TD*%
D25*
%TO.C,R11*%
X132600000Y-105175000D03*
X132600000Y-107000000D03*
%TD*%
D31*
%TO.C,U2*%
X140300000Y-129575000D03*
D32*
X142575000Y-126712500D03*
X141925000Y-126712500D03*
X141275000Y-126712500D03*
X140625000Y-126712500D03*
X139975000Y-126712500D03*
X139325000Y-126712500D03*
X138675000Y-126712500D03*
X138025000Y-126712500D03*
X138025000Y-132437500D03*
X138675000Y-132437500D03*
X139325000Y-132437500D03*
X139975000Y-132437500D03*
X140625000Y-132437500D03*
X141275000Y-132437500D03*
X141925000Y-132437500D03*
X142575000Y-132437500D03*
%TD*%
D19*
%TO.C,J_MOT_L1*%
X145700000Y-120175000D03*
D20*
X143700000Y-120175000D03*
%TD*%
D33*
%TO.C,C1*%
X161200000Y-127800000D03*
D13*
X157700000Y-127800000D03*
%TD*%
D27*
%TO.C,J_SERVO2*%
X164600000Y-115395000D03*
D28*
X164600000Y-117935000D03*
X164600000Y-120475000D03*
%TD*%
D34*
%TO.C,L1*%
X153700000Y-71900000D03*
X150900000Y-71900000D03*
%TD*%
D35*
%TO.C,D2*%
X146560000Y-80575000D03*
D36*
X149100000Y-80575000D03*
%TD*%
D26*
%TO.C,C10*%
X159100000Y-74975000D03*
X161000000Y-74975000D03*
%TD*%
%TO.C,C2*%
X133300000Y-134375000D03*
X135200000Y-134375000D03*
%TD*%
D11*
%TO.C,R14*%
X145475000Y-68400000D03*
X147300000Y-68400000D03*
%TD*%
D14*
%TO.C,R8*%
X141200000Y-91100000D03*
X139375000Y-91100000D03*
%TD*%
D22*
%TO.C,J_SWITCH1*%
X164600000Y-107075000D03*
D23*
X164600000Y-105075000D03*
%TD*%
D21*
%TO.C,J_BATT1*%
X160300000Y-87975000D03*
D20*
X162300000Y-87975000D03*
%TD*%
D37*
%TO.C,R13*%
X168100000Y-80900000D03*
X168100000Y-79075000D03*
%TD*%
D14*
%TO.C,R15*%
X144425000Y-72700000D03*
X142600000Y-72700000D03*
%TD*%
D27*
%TO.C,J_SERVO1*%
X153800000Y-115395000D03*
D28*
X153800000Y-117935000D03*
X153800000Y-120475000D03*
%TD*%
D38*
%TO.C,J1*%
X165960000Y-68890000D03*
X165960000Y-63110000D03*
D39*
X164515000Y-69250000D03*
X164515000Y-68450000D03*
D40*
X164515000Y-67250000D03*
X164515000Y-66250000D03*
X164515000Y-65750000D03*
X164515000Y-64750000D03*
D39*
X164515000Y-63550000D03*
X164515000Y-62750000D03*
X164515000Y-62750000D03*
X164515000Y-63550000D03*
D40*
X164515000Y-64250000D03*
X164515000Y-65250000D03*
X164515000Y-66750000D03*
X164515000Y-67750000D03*
D39*
X164515000Y-68450000D03*
X164515000Y-69250000D03*
D41*
X165430000Y-70320000D03*
D42*
X169610000Y-70320000D03*
D41*
X165430000Y-61680000D03*
D42*
X169610000Y-61680000D03*
%TD*%
D26*
%TO.C,C7*%
X146100000Y-96175000D03*
X148000000Y-96175000D03*
%TD*%
D43*
%TO.C,D1*%
X132200000Y-112400000D03*
X130100000Y-112400000D03*
%TD*%
D11*
%TO.C,R1*%
X142475000Y-104875000D03*
X144300000Y-104875000D03*
%TD*%
D44*
%TO.C,D3*%
X140900000Y-59900000D03*
X144900000Y-59900000D03*
%TD*%
D45*
%TO.C,Q1*%
X124725000Y-105125000D03*
X124725000Y-107025000D03*
X126600000Y-106075000D03*
%TD*%
D26*
%TO.C,C8*%
X137050000Y-97100000D03*
X138950000Y-97100000D03*
%TD*%
D46*
%TO.C,U1*%
X95800000Y-57660000D03*
D47*
X95800000Y-60200000D03*
X95800000Y-62740000D03*
X95800000Y-65280000D03*
X95800000Y-67820000D03*
X95800000Y-70360000D03*
X95800000Y-72900000D03*
X95800000Y-75440000D03*
X95800000Y-77980000D03*
X95800000Y-80520000D03*
X95800000Y-83060000D03*
X95800000Y-85600000D03*
X95800000Y-88140000D03*
X95800000Y-90680000D03*
X95800000Y-93220000D03*
X95800000Y-95760000D03*
X95800000Y-98300000D03*
X95800000Y-100840000D03*
X95800000Y-103380000D03*
X95796320Y-105917280D03*
X95796320Y-108457280D03*
X95796320Y-110997280D03*
X118660000Y-111000000D03*
X118660000Y-108460000D03*
X118660000Y-105920000D03*
X118660000Y-103380000D03*
X118660000Y-100840000D03*
X118660000Y-98300000D03*
X118660000Y-95760000D03*
X118660000Y-93220000D03*
X118660000Y-90680000D03*
X118660000Y-88140000D03*
X118660000Y-85600000D03*
X118660000Y-83060000D03*
X118660000Y-80520000D03*
X118660000Y-77980000D03*
X118660000Y-75440000D03*
X118660000Y-72900000D03*
X118660000Y-70360000D03*
X118660000Y-67820000D03*
X118660000Y-65280000D03*
X118660000Y-62740000D03*
X118660000Y-60200000D03*
X118660000Y-57660000D03*
%TD*%
M02*
